Description
Camila Vernaglia já se contentou. A modelo perdeu a capa da Sexy, da qual tinha contrato assinado, após fazer alguns comentários sobre a nova escolha da revista, a ex-BBB Anamara.

A morena alfinetou a concorrente ao dizer que preferia seu corpo. Pronto. Bastou isso para que a publicação a dispensasse com direito a comunicado oficial.

Camila ficou chateada. Em conversa com o R7, ela se defendeu.

— Eu não esperava essa decisão da revista. Não falei nada de mais em nenhum momento. Não fiz comentários tão agressivos. Acho que a Anamara não gostou de algo, né? Bom, mas é um risco que a gente corre.

Senha: C@mil@ Vern@gli@ 

Format : Matroska
Format version : Version 4 / Version 2
File size : 247 MiB
Duration : 2mn 9s
Overall bit rate : 16.0 Mbps
Encoded date : UTC 2013-06-13 17:31:39
Writing application : mkvmerge v6.2.0 ('Promised Land') built on Apr 28 2013 12:22:01
Writing library : libebml v1.3.0 + libmatroska v1.4.0

Video
ID : 1
Format : AVC
Format/Info : Advanced Video Codec
Format profile : High@L4.1
Format settings, CABAC : Yes
Format settings, ReFrames : 4 frames
Codec ID : V_MPEG4/ISO/AVC
Duration : 2mn 9s
Bit rate : 15.3 Mbps
Nominal bit rate : 20.4 Mbps
Width : 1 280 pixels
Height : 720 pixels
Display aspect ratio : 1.85:1
Original display aspect ratio : 1.85:1
Frame rate mode : Constant
Frame rate : 23.976 fps
Color space : YUV
Chroma subsampling : 4:2:0
Bit depth : 8 bits
Scan type : Progressive
Bits/(Pixel*Frame) : 0.694
Stream size : 237 MiB (96%)
Title : Camila Vernaglia - Zagor Lukas
Writing library : x264 core 133 r2334 a3ac64b
Encoding settings : cabac=1 / ref=3 / deblock=1:0:0 / analyse=0x3:0x113 / me=hex / subme=7 / psy=1 / psy_rd=1.00:0.00 / mixed_ref=1 / me_range=16 / chroma_me=1 / trellis=1 / 8x8dct=1 / cqm=0 / deadzone=21,11 / fast_pskip=1 / chroma_qp_offset=-2 / threads=3 / lookahead_threads=1 / sliced_threads=0 / nr=0 / decimate=1 / interlaced=0 / bluray_compat=0 / constrained_intra=0 / bframes=3 / b_pyramid=2 / b_adapt=1 / b_bias=0 / direct=1 / weightb=1 / open_gop=0 / weightp=2 / keyint=240 / keyint_min=23 / scenecut=40 / intra_refresh=0 / rc_lookahead=40 / rc=2pass / mbtree=1 / bitrate=20353 / ratetol=1.0 / qcomp=0.60 / qpmin=0 / qpmax=69 / qpstep=4 / cplxblur=20.0 / qblur=0.5 / vbv_maxrate=24000 / vbv_bufsize=24000 / nal_hrd=none / ip_ratio=1.40 / aq=1:1.00
Language : Portuguese
Default : Yes
Forced : No

Audio
ID : 2
Format : AC-3
Format/Info : Audio Coding 3
Mode extension : CM (complete main)
Format settings, Endianness : Big
Codec ID : A_AC3
Duration : 2mn 9s
Bit rate mode : Constant
Bit rate : 384 Kbps
Channel(s) : 2 channels
Channel positions : Front: L R
Sampling rate : 44.1 KHz
Bit depth : 16 bits
Compression mode : Lossy
Stream size : 5.92 MiB (2%)
Title : por
Language : Portuguese
Default : Yes
Forced : No

Text
ID : 3
Format : ASS
Codec ID : S_TEXT/ASS
Codec ID/Info : Advanced Sub Station Alpha
Compression mode : Lossless
Title : Credito
Language : Portuguese
Default : Yes
Forced : No